<?xml version="1.0" encoding="UTF-8" standalone="no"?>
<svg
   id="Layer_2"
   viewBox="0 0 300 83.1"
   version="1.1"
   sodipodi:docname="powered_by_logo.svg"
   inkscape:version="1.4 (e7c3feb100, 2024-10-09)"
   xmlns:inkscape="http://www.inkscape.org/namespaces/inkscape"
   xmlns:sodipodi="http://sodipodi.sourceforge.net/DTD/sodipodi-0.dtd"
   xmlns="http://www.w3.org/2000/svg"
   xmlns:svg="http://www.w3.org/2000/svg">
  <defs
     id="defs24" />
  <sodipodi:namedview
     id="namedview24"
     pagecolor="#ffffff"
     bordercolor="#000000"
     borderopacity="0.25"
     inkscape:showpageshadow="2"
     inkscape:pageopacity="0.0"
     inkscape:pagecheckerboard="0"
     inkscape:deskcolor="#d1d1d1"
     inkscape:zoom="10.543698"
     inkscape:cx="148.2402"
     inkscape:cy="22.003664"
     inkscape:window-width="3840"
     inkscape:window-height="2080"
     inkscape:window-x="0"
     inkscape:window-y="0"
     inkscape:window-maximized="1"
     inkscape:current-layer="Layer_2" />
  <path
     d="M25.51,20.25c-.98-.78-2.16-1.41-3.55-1.87,1.17-.5,2.18-1.14,3.03-1.92.85-.78,1.51-1.69,1.97-2.75.46-1.05.7-2.23.7-3.55,0-2.84-1.15-5.14-3.43-6.9S18.71.64,14.55.64H1.84C.82.64,0,1.47,0,2.48v33.53C0,37.02.82,37.84,1.84,37.84h13.25c2.74,0,5.11-.44,7.11-1.3,2.01-.87,3.56-2.11,4.66-3.73,1.1-1.61,1.65-3.51,1.65-5.68,0-1.5-.26-2.81-.77-3.97-.52-1.15-1.26-2.12-2.24-2.9h0ZM7.73,8.87c0-1.01.82-1.84,1.84-1.84h4.56c1.64,0,2.97.39,4,1.17.95.73,1.47,1.68,1.54,2.86.08,1.32-.47,2.64-1.49,3.49s-2.37,1.27-4.05,1.27h-4.56c-1.01,0-1.84-.82-1.84-1.84v-5.13h0ZM18.98,30.19c-1.03.84-2.4,1.25-4.1,1.25h-5.31c-1.01,0-1.84-.82-1.84-1.84v-5.55c0-1.01.82-1.84,1.84-1.84h5.09c1.85,0,3.29.41,4.32,1.23,1.03.81,1.55,1.95,1.55,3.41s-.52,2.49-1.55,3.33h0Z"
     id="path1" />
  <path
     d="M40.59.64h-4.06c-1.01,0-1.84.82-1.84,1.84v33.53c0,1.01.82,1.84,1.84,1.84h22.6c1.01,0,1.84-.82,1.84-1.84v-2.73c0-1.01-.82-1.84-1.84-1.84h-14.88c-1.01,0-1.84-.82-1.84-1.84V2.47c0-1.01-.82-1.84-1.84-1.84h0Z"
     id="path2" />
  <path
     d="M86.31,2.32c-2.41-1.55-5.24-2.32-8.47-2.32s-6.07.77-8.5,2.32c-2.44,1.55-4.31,3.76-5.65,6.63-1.33,2.88-2,6.31-2,10.29s.67,7.36,2,10.23c1.33,2.88,3.21,5.1,5.65,6.66s5.27,2.35,8.5,2.35,6.05-.78,8.47-2.35c2.41-1.56,4.3-3.78,5.65-6.66,1.35-2.88,2.03-6.29,2.03-10.23s-.67-7.45-2.03-10.31c-1.35-2.86-3.23-5.06-5.65-6.61ZM84.9,26.16c-.7,1.92-1.65,3.38-2.88,4.4s-2.62,1.52-4.18,1.52-2.97-.5-4.21-1.52-2.21-2.48-2.9-4.4c-.7-1.92-1.04-4.23-1.04-6.93s.35-5.01,1.04-6.93c.7-1.92,1.66-3.38,2.9-4.4,1.24-1.01,2.65-1.52,4.21-1.52s2.96.5,4.18,1.52c1.23,1.01,2.18,2.47,2.88,4.37.7,1.9,1.04,4.22,1.04,6.96s-.35,5.01-1.04,6.93Z"
     id="path3" />
  <path
     d="M121.06,28.88c-.62,1.03-1.43,1.82-2.43,2.37-.99.56-2.15.83-3.46.83-1.56,0-2.97-.5-4.21-1.5-1.24-.99-2.22-2.45-2.93-4.37-.71-1.92-1.07-4.24-1.07-6.98s.36-5.06,1.1-6.98c.73-1.92,1.73-3.38,3.01-4.37s2.74-1.5,4.37-1.5c1.88,0,3.39.61,4.53,1.81.85.9,1.44,2.03,1.78,3.38.2.82.9,1.42,1.75,1.42h4.88c1.16,0,2.04-1.07,1.8-2.21-.38-1.81-1.07-3.4-2.08-4.8-1.41-1.94-3.2-3.42-5.41-4.45-2.21-1.03-4.62-1.55-7.25-1.55-3.34,0-6.25.79-8.71,2.37-2.47,1.58-4.38,3.81-5.73,6.69-1.35,2.88-2.03,6.27-2.03,10.18s.66,7.2,1.97,10.1,3.18,5.14,5.6,6.74c2.41,1.6,5.29,2.4,8.63,2.4,3.02,0,5.63-.54,7.83-1.63,2.21-1.08,3.96-2.62,5.28-4.61.93-1.41,1.61-3,2.02-4.76.27-1.15-.6-2.27-1.78-2.27h-4.75c-.83,0-1.58.55-1.78,1.35-.2.86-.51,1.64-.93,2.32h.01Z"
     id="path4" />
  <path
     d="M161.77.64h-4.45c-.53,0-1.04.23-1.38.63l-7.08,8.16-1.6,1.95c-1.15,1.4-3.42.46-3.24-1.35l.09-.88c0-.06,0-.12,0-.18V2.48c0-1.01-.82-1.84-1.84-1.84h-4.12c-1.01,0-1.84.82-1.84,1.84v33.53c0,1.01.82,1.84,1.84,1.84h4.12c1.01,0,1.84-.82,1.84-1.84v-9.48c0-.44.16-.86.44-1.19l1.87-2.18c.82-.95,2.34-.82,2.98.27l7.88,13.5c.33.56.93.91,1.58.91h4.77c1.42,0,2.3-1.55,1.58-2.78l-11.23-18.79c-.41-.67-.33-1.54.19-2.13l8.99-10.47c1.02-1.19.18-3.03-1.39-3.03Z"
     id="path5" />
  <path
     d="M186.05,22.71h0c-.39,1.97-3.2,1.97-3.6,0h0s-.02-.09-.03-.13l-5.74-20.6c-.22-.79-.94-1.34-1.77-1.34h-4.2c-1.21,0-2.09,1.15-1.77,2.32l9.13,33.53c.21.8.94,1.35,1.77,1.35h8.66c.83,0,1.55-.56,1.77-1.35l9.18-33.53c.32-1.17-.56-2.32-1.77-2.32h-4.09c-.82,0-1.55.55-1.77,1.34l-5.74,20.6s-.02.09-.03.13h0Z"
     id="path6" />
  <path
     d="M227.15,2.32c-2.41-1.55-5.24-2.32-8.47-2.32s-6.07.77-8.5,2.32c-2.44,1.55-4.31,3.76-5.65,6.63-1.33,2.88-2,6.31-2,10.29s.67,7.36,2,10.23c1.33,2.88,3.21,5.1,5.65,6.66s5.27,2.35,8.5,2.35,6.05-.78,8.47-2.35c2.41-1.56,4.3-3.78,5.65-6.66s2.03-6.29,2.03-10.23-.67-7.45-2.03-10.31c-1.35-2.86-3.23-5.06-5.65-6.61ZM225.73,26.16c-.7,1.92-1.65,3.38-2.88,4.4s-2.62,1.52-4.18,1.52-2.97-.5-4.21-1.52-2.21-2.48-2.9-4.4c-.7-1.92-1.04-4.23-1.04-6.93s.35-5.01,1.04-6.93c.7-1.92,1.66-3.38,2.9-4.4,1.24-1.01,2.65-1.52,4.21-1.52s2.96.5,4.18,1.52c1.23,1.01,2.18,2.47,2.88,4.37.7,1.9,1.04,4.22,1.04,6.96s-.35,5.01-1.04,6.93Z"
     id="path7" />
  <path
     d="M238.89,7.04h7.58c1.01,0,1.84.82,1.84,1.84v27.13c0,1.01.82,1.84,1.84,1.84h4.06c1.01,0,1.84-.82,1.84-1.84V8.87c0-1.01.82-1.84,1.84-1.84h7.58c1.01,0,1.84-.82,1.84-1.84v-2.73c0-1.01-.82-1.84-1.84-1.84h-26.55c-1.01,0-1.84.82-1.84,1.84v2.73c0,1.01.82,1.84,1.84,1.84h-.01Z"
     id="path8" />
  <path
     d="M280.28,29.61v-5.98c0-1.01.82-1.84,1.84-1.84h9.23c1.01,0,1.84-.82,1.84-1.84v-2.73c0-1.01-.82-1.84-1.84-1.84h-9.23c-1.01,0-1.84-.82-1.84-1.84v-4.7c0-1.01.82-1.84,1.84-1.84h15.84c1.01,0,1.84-.82,1.84-1.84v-2.73c0-1.01-.82-1.84-1.84-1.84h-23.62c-1.01,0-1.84.82-1.84,1.84v33.53c0,1.01.82,1.84,1.84,1.84h23.83c1.01,0,1.84-.82,1.84-1.84v-2.73c0-1.01-.82-1.84-1.84-1.84h-16.05c-1.01,0-1.84-.82-1.84-1.84v.03Z"
     id="path9" />
  <path
     d="m 196.76604,50.535157 c -1.6,-1.64 -3.5,-2.98 -5.6,-3.96 -0.09,-0.04 -0.17,-0.08 -0.26,-0.12 -0.41,-0.19 -0.83,-0.36 -1.26,-0.52 -1.19,-0.43 -2.45,-0.75 -3.74,-0.94 -0.91,-0.13 -1.83,-0.2 -2.77,-0.2 -10.54,0 -19.1,8.57 -19.1,19.1 0,8.21 5.2,15.22 12.48,17.92 0.85,0.32 1.74,0.57 2.65,0.77 1.28,0.27 2.61,0.42 3.97,0.42 7.26,0 13.58,-4.07 16.81,-10.04 1.46,-2.7 2.29,-5.78 2.29,-9.06 0,-5.2 -2.09,-9.92 -5.47,-13.36 v 0 z m -16.68,28.88 c -3.95,0 -7.73,-1.93 -10.36,-5.3 v 0 c -2.26,-2.98 -3.45,-6.53 -3.45,-10.27 0,-6.39 3.54,-11.97 8.77,-14.88 0.14,-0.08 0.28,0.11 0.16,0.21 -0.48,0.45 -0.94,0.93 -1.37,1.44 -3.03,3.54 -4.77,8.36 -4.79,13.22 0,6.31 4.22,13.12 11.04,13.12 6.08,0 11.04,-5.88 11.04,-13.12 0,-3.4 -1.14,-6.66 -3.09,-9.08 -0.07,-0.09 0.01,-0.21 0.12,-0.18 3.29,0.97 5.75,4.76 5.75,9.26 0,3.98 -1.44,7.94 -3.96,10.87 -2.61,3.03 -6.11,4.7 -9.86,4.71 z m -2.65,-15.57 c 0,-4.5 2.19,-8.4 5.33,-10.14 0.39,-0.21 0.87,-0.19 1.23,0.07 l 0.67,0.49 c 2.75,2.01 4.46,5.68 4.46,9.58 v 0 c 0,4.51 -2.19,8.4 -5.33,10.14 -0.39,0.21 -0.87,0.19 -1.23,-0.07 l -0.67,-0.49 c -2.75,-2.01 -4.46,-5.68 -4.46,-9.58 z m 22.85,0 c 0,6.39 -3.54,11.97 -8.77,14.88 -0.14,0.08 -0.28,-0.11 -0.16,-0.21 0.48,-0.45 0.94,-0.93 1.37,-1.44 3.03,-3.54 4.77,-8.36 4.79,-13.22 0,-6.31 -4.22,-13.12 -11.04,-13.12 -6.08,0 -11.04,5.88 -11.04,13.12 0,3.4 1.14,6.66 3.09,9.08 0.07,0.09 -0.01,0.21 -0.12,0.18 -3.29,-0.97 -5.75,-4.76 -5.75,-9.26 0,-3.98 1.44,-7.94 3.96,-10.87 2.61,-3.03 6.11,-4.7 9.86,-4.7 3.95,0 7.72,1.93 10.36,5.31 v 0 c 2.25,2.97 3.44,6.52 3.44,10.26 v 0 z"
     id="path10" />
  <path
     d="m 218.08604,58.105157 c -0.85,-0.54 -1.85,-0.82 -2.99,-0.82 -1.14,0 -2.14,0.27 -3,0.82 -0.86,0.55 -1.52,1.33 -1.99,2.34 -0.47,1.02 -0.71,2.23 -0.71,3.63 0,1.4 0.23,2.59 0.71,3.61 0.47,1.02 1.13,1.8 1.99,2.35 0.86,0.55 1.86,0.83 3,0.83 1.14,0 2.13,-0.28 2.99,-0.83 0.85,-0.55 1.51,-1.34 1.99,-2.35 0.48,-1.01 0.72,-2.22 0.72,-3.61 0,-1.39 -0.24,-2.63 -0.72,-3.64 -0.48,-1.01 -1.14,-1.79 -1.99,-2.33 z m -0.5,8.42 c -0.24,0.68 -0.58,1.19 -1.02,1.55 -0.43,0.36 -0.93,0.53 -1.48,0.53 -0.55,0 -1.05,-0.18 -1.49,-0.53 -0.44,-0.36 -0.78,-0.87 -1.02,-1.55 -0.24,-0.68 -0.37,-1.49 -0.37,-2.45 0,-0.96 0.12,-1.77 0.37,-2.45 0.24,-0.68 0.59,-1.19 1.02,-1.55 0.44,-0.36 0.94,-0.53 1.49,-0.53 0.55,0 1.05,0.18 1.48,0.53 0.43,0.36 0.77,0.87 1.02,1.54 0.24,0.67 0.37,1.49 0.37,2.45 0,0.96 -0.12,1.77 -0.37,2.45 z"
     id="path11" />
  <path
     d="m 229.95604,57.975157 c -0.07,-0.27 -0.32,-0.45 -0.59,-0.45 h -3.11 c -0.28,0 -0.52,0.19 -0.59,0.45 v 0 l -3.22,11.9 c -0.11,0.39 0.19,0.77 0.59,0.77 h 1.44 c 0.28,0 0.52,-0.19 0.59,-0.45 l 0.49,-1.87 c 0.07,-0.27 0.31,-0.45 0.59,-0.45 h 3.29 c 0.28,0 0.52,0.19 0.59,0.46 l 0.48,1.87 c 0.07,0.27 0.31,0.46 0.59,0.46 h 1.51 c 0.4,0 0.69,-0.38 0.59,-0.77 l -3.24,-11.91 v 0 z m -1.42,7.63 h -1.47 c -0.4,0 -0.69,-0.38 -0.59,-0.76 l 0.54,-2.05 0.2,-0.82 c 0.15,-0.63 1.04,-0.63 1.18,0 l 0.2,0.82 0.53,2.06 c 0.1,0.39 -0.19,0.76 -0.59,0.76 v 0 z"
     id="path12" />
  <path
     d="m 254.44604,57.515157 h -5.91 c -0.34,0 -0.61,0.27 -0.61,0.61 v 1.04 c 0,0.34 0.27,0.61 0.61,0.61 h 0.98 c 0.34,0 0.61,0.27 0.61,0.61 v 7.39 c 0,0.34 -0.27,0.61 -0.61,0.61 h -0.98 c -0.34,0 -0.61,0.27 -0.61,0.61 v 1.04 c 0,0.34 0.27,0.61 0.61,0.61 h 5.91 c 0.34,0 0.61,-0.27 0.61,-0.61 v -1.04 c 0,-0.34 -0.27,-0.61 -0.61,-0.61 h -0.98 c -0.34,0 -0.61,-0.27 -0.61,-0.61 v -7.39 c 0,-0.34 0.27,-0.61 0.61,-0.61 h 0.98 c 0.34,0 0.61,-0.27 0.61,-0.61 v -1.04 c 0,-0.34 -0.27,-0.61 -0.61,-0.61 z"
     id="path13" />
  <path
     d="m 267.41604,65.105157 c -0.26,-0.48 -0.6,-0.87 -1.02,-1.17 -0.42,-0.3 -0.88,-0.53 -1.37,-0.7 -0.5,-0.17 -0.99,-0.32 -1.49,-0.43 -0.5,-0.12 -0.96,-0.24 -1.38,-0.38 -0.42,-0.13 -0.75,-0.3 -1.01,-0.52 -0.26,-0.22 -0.38,-0.5 -0.38,-0.85 0,-0.49 0.19,-0.86 0.55,-1.13 0.36,-0.27 0.84,-0.4 1.4,-0.4 0.39,0 0.75,0.06 1.08,0.23 0.43,0.23 0.73,0.57 0.89,0.82 0.11,0.17 0.31,0.27 0.51,0.27 h 1.65 c 0.43,0 0.73,-0.43 0.57,-0.83 -0.11,-0.28 -0.25,-0.54 -0.43,-0.78 -0.46,-0.64 -1.07,-1.13 -1.81,-1.47 -0.74,-0.34 -1.57,-0.51 -2.45,-0.51 -0.96,0 -1.81,0.17 -2.52,0.51 -0.71,0.34 -1.27,0.8 -1.67,1.38 -0.4,0.58 -0.59,1.24 -0.59,1.96 0,0.72 0.12,1.28 0.38,1.74 0.25,0.46 0.59,0.83 1.01,1.1 0.42,0.28 0.88,0.5 1.38,0.68 0.5,0.18 1,0.32 1.49,0.45 0.5,0.12 0.96,0.26 1.37,0.41 0.42,0.14 0.75,0.33 1.01,0.55 0.25,0.22 0.38,0.53 0.38,0.9 0,0.52 -0.19,0.92 -0.57,1.2 -0.38,0.29 -0.89,0.43 -1.53,0.43 -0.79,0 -1.39,-0.23 -1.81,-0.7 -0.17,-0.19 -0.31,-0.43 -0.4,-0.69 -0.09,-0.26 -0.34,-0.44 -0.62,-0.44 h -1.48 c -0.41,0 -0.7,0.39 -0.59,0.78 0.1,0.36 0.23,0.69 0.41,0.99 0.41,0.74 1,1.31 1.77,1.71 0.77,0.4 1.68,0.6 2.73,0.6 0.96,0 1.8,-0.17 2.55,-0.5 0.75,-0.33 1.33,-0.79 1.76,-1.37 0.43,-0.58 0.64,-1.26 0.64,-2.04 0,-0.78 -0.13,-1.37 -0.39,-1.85 v 0 z"
     id="path14" />
  <path
     d="m 244.92604,65.105157 c -0.26,-0.48 -0.6,-0.87 -1.02,-1.17 -0.42,-0.3 -0.88,-0.53 -1.37,-0.7 -0.5,-0.17 -0.99,-0.32 -1.49,-0.43 -0.5,-0.12 -0.96,-0.24 -1.38,-0.38 -0.42,-0.13 -0.75,-0.3 -1.01,-0.52 -0.26,-0.22 -0.38,-0.5 -0.38,-0.85 0,-0.49 0.19,-0.86 0.55,-1.13 0.36,-0.27 0.84,-0.4 1.4,-0.4 0.39,0 0.75,0.06 1.08,0.23 0.43,0.23 0.73,0.57 0.89,0.82 0.11,0.17 0.3,0.27 0.51,0.27 h 1.65 c 0.43,0 0.73,-0.43 0.57,-0.83 -0.11,-0.28 -0.25,-0.54 -0.43,-0.78 -0.46,-0.64 -1.07,-1.13 -1.81,-1.47 -0.74,-0.34 -1.57,-0.51 -2.45,-0.51 -0.96,0 -1.81,0.17 -2.52,0.51 -0.71,0.34 -1.27,0.8 -1.67,1.38 -0.4,0.58 -0.59,1.24 -0.59,1.96 0,0.72 0.12,1.28 0.38,1.74 0.25,0.46 0.59,0.83 1.01,1.1 0.42,0.28 0.88,0.5 1.38,0.68 0.5,0.18 1,0.32 1.49,0.45 0.5,0.12 0.96,0.26 1.37,0.41 0.42,0.14 0.75,0.33 1.01,0.55 0.25,0.22 0.38,0.53 0.38,0.9 0,0.52 -0.19,0.92 -0.57,1.2 -0.38,0.29 -0.89,0.43 -1.53,0.43 -0.79,0 -1.39,-0.23 -1.81,-0.7 -0.17,-0.19 -0.31,-0.43 -0.4,-0.69 -0.1,-0.26 -0.34,-0.44 -0.62,-0.44 h -1.48 c -0.41,0 -0.7,0.39 -0.59,0.78 0.1,0.36 0.23,0.69 0.41,0.99 0.41,0.74 1,1.31 1.77,1.71 0.77,0.4 1.68,0.6 2.73,0.6 0.96,0 1.8,-0.17 2.55,-0.5 0.75,-0.33 1.33,-0.79 1.76,-1.37 0.43,-0.58 0.64,-1.26 0.64,-2.04 0,-0.78 -0.13,-1.37 -0.39,-1.85 v 0 z"
     id="path15" />
  <path
     d="m 41.046044,58.025157 c -0.7,-0.38 -1.55,-0.57 -2.55,-0.57 h -4.71 c -0.26,0 -0.48,0.21 -0.48,0.48 v 12.19 c 0,0.26 0.21,0.48 0.48,0.48 h 1.82 c 0.26,0 0.48,-0.21 0.48,-0.48 v -3.31 c 0,-0.26 0.21,-0.48 0.48,-0.48 h 1.86 c 1.01,0 1.87,-0.19 2.58,-0.56 0.71,-0.37 1.26,-0.89 1.63,-1.56 0.38,-0.67 0.56,-1.44 0.56,-2.31 0,-0.87 -0.19,-1.64 -0.55,-2.31 -0.37,-0.67 -0.91,-1.19 -1.61,-1.57 v 0 z m -0.96,5.03 c -0.17,0.33 -0.43,0.59 -0.78,0.78 -0.35,0.19 -0.79,0.28 -1.32,0.28 h -1.41 c -0.26,0 -0.48,-0.21 -0.48,-0.48 v -3.43 c 0,-0.26 0.21,-0.48 0.48,-0.48 h 1.39 c 0.54,0 0.98,0.09 1.33,0.27 0.35,0.18 0.61,0.43 0.79,0.76 0.17,0.33 0.26,0.71 0.26,1.15 0,0.44 -0.09,0.81 -0.26,1.15 z"
     id="path16" />
  <path
     d="m 53.836044,58.065157 c -0.93,-0.53 -1.98,-0.79 -3.13,-0.79 -1.15,0 -2.22,0.26 -3.14,0.79 -0.92,0.53 -1.66,1.29 -2.2,2.3 -0.54,1 -0.81,2.23 -0.81,3.66 0,1.43 0.27,2.65 0.81,3.65 0.54,1.01 1.28,1.77 2.2,2.3 0.92,0.53 1.98,0.8 3.14,0.8 1.16,0 2.2,-0.26 3.13,-0.79 0.93,-0.53 1.67,-1.29 2.21,-2.3 0.54,-1 0.81,-2.23 0.81,-3.66 0,-1.43 -0.27,-2.65 -0.81,-3.66 -0.54,-1.01 -1.28,-1.77 -2.21,-2.3 z m -0.21,8.31 c -0.28,0.64 -0.66,1.12 -1.17,1.45 -0.5,0.33 -1.09,0.49 -1.76,0.49 -0.67,0 -1.26,-0.16 -1.76,-0.49 -0.5,-0.33 -0.89,-0.81 -1.17,-1.45 -0.28,-0.64 -0.42,-1.42 -0.42,-2.35 0,-0.93 0.14,-1.71 0.42,-2.35 0.28,-0.64 0.66,-1.12 1.17,-1.45 0.5,-0.33 1.08,-0.49 1.76,-0.49 0.68,0 1.26,0.17 1.76,0.49 0.5,0.33 0.89,0.81 1.17,1.45 0.28,0.64 0.42,1.42 0.42,2.35 0,0.93 -0.14,1.71 -0.42,2.35 z"
     id="path17" />
  <path
     d="m 75.266044,57.455157 h -2.03 c -0.22,0 -0.42,0.15 -0.46,0.37 l -2.09,8.78 h -0.11 l -2.3,-8.79 c -0.06,-0.21 -0.24,-0.36 -0.46,-0.36 h -1.86 c -0.21,0 -0.41,0.15 -0.46,0.36 l -2.31,8.77 h -0.11 l -2.09,-8.76 c -0.05,-0.21 -0.24,-0.37 -0.46,-0.37 h -2.03 c -0.32,0 -0.54,0.31 -0.46,0.61 l 3.49,12.19 c 0.06,0.21 0.25,0.34 0.46,0.34 h 1.99 c 0.21,0 0.4,-0.14 0.46,-0.34 l 2.4,-8.25 h 0.1 l 2.4,8.25 c 0.06,0.21 0.25,0.34 0.46,0.34 h 1.99 c 0.21,0 0.4,-0.14 0.46,-0.34 l 3.49,-12.19 c 0.09,-0.31 -0.14,-0.61 -0.46,-0.61 v 0 z"
     id="path18" />
  <path
     d="m 86.506044,68.305157 h -5.15 c -0.26,0 -0.48,-0.21 -0.48,-0.48 v -2.18 c 0,-0.26 0.21,-0.48 0.48,-0.48 h 4.67 c 0.26,0 0.48,-0.21 0.48,-0.48 v -1.34 c 0,-0.26 -0.21,-0.48 -0.48,-0.48 h -4.67 c -0.26,0 -0.48,-0.21 -0.48,-0.48 v -2.18 c 0,-0.26 0.21,-0.48 0.48,-0.48 h 5.12 c 0.26,0 0.48,-0.21 0.48,-0.48 v -1.34 c 0,-0.26 -0.21,-0.48 -0.48,-0.48 h -7.9 c -0.26,0 -0.48,0.21 -0.48,0.48 v 12.19 c 0,0.26 0.21,0.48 0.48,0.48 h 7.92 c 0.26,0 0.48,-0.21 0.48,-0.48 v -1.34 c 0,-0.26 -0.21,-0.48 -0.48,-0.48 v 0 z"
     id="path19" />
  <path
     d="m 97.946044,65.485157 c 0,0 0.09,-0.03 0.12,-0.05 0.71,-0.33 1.26,-0.81 1.63,-1.44 0.379996,-0.63 0.559996,-1.38 0.559996,-2.25 0,-0.87 -0.19,-1.62 -0.549996,-2.27 -0.37,-0.64 -0.91,-1.14 -1.61,-1.49 -0.7,-0.35 -1.55,-0.53 -2.55,-0.53 h -4.71 c -0.26,0 -0.48,0.21 -0.48,0.48 v 12.19 c 0,0.26 0.21,0.48 0.48,0.48 h 1.82 c 0.26,0 0.48,-0.21 0.48,-0.48 v -4.18 h 2.03 l 2.35,4.41 c 0.08,0.16 0.24,0.25 0.42,0.25 h 1.979999 c 0.359997,0 0.589997,-0.39 0.419997,-0.71 l -2.409996,-4.4 v 0 z m -0.8,-2.65 c -0.17,0.29 -0.43,0.51 -0.79,0.65 -0.35,0.14 -0.79,0.22 -1.32,0.22 h -1.41 c -0.26,0 -0.48,-0.21 -0.48,-0.48 v -3.02 c 0,-0.26 0.21,-0.48 0.48,-0.48 h 1.39 c 0.53,0 0.98,0.08 1.33,0.23 0.35,0.16 0.62,0.38 0.79,0.68 0.17,0.3 0.26,0.67 0.26,1.1 0,0.43 -0.09,0.79 -0.26,1.08 v 0 z"
     id="path20" />
  <path
     d="m 111.35604,68.305157 h -5.15 c -0.26,0 -0.48,-0.21 -0.48,-0.48 v -2.18 c 0,-0.26 0.21,-0.48 0.48,-0.48 h 4.67 c 0.26,0 0.48,-0.21 0.48,-0.48 v -1.34 c 0,-0.26 -0.21,-0.48 -0.48,-0.48 h -4.67 c -0.26,0 -0.48,-0.21 -0.48,-0.48 v -2.18 c 0,-0.26 0.21,-0.48 0.48,-0.48 h 5.12 c 0.26,0 0.48,-0.21 0.48,-0.48 v -1.34 c 0,-0.26 -0.21,-0.48 -0.48,-0.48 h -7.9 c -0.26,0 -0.48,0.21 -0.48,0.48 v 12.19 c 0,0.26 0.21,0.48 0.48,0.48 h 7.92 c 0.26,0 0.48,-0.21 0.48,-0.48 v -1.34 c 0,-0.26 -0.21,-0.48 -0.48,-0.48 v 0 z"
     id="path21" />
  <path
     d="m 123.33604,58.245157 c -0.96,-0.53 -2.09,-0.79 -3.41,-0.79 h -4.22 c -0.26,0 -0.48,0.21 -0.48,0.48 v 12.19 c 0,0.26 0.21,0.48 0.48,0.48 h 4.18 c 1.33,0 2.48,-0.26 3.44,-0.79 0.96,-0.53 1.7,-1.28 2.22,-2.26 0.52,-0.98 0.77,-2.16 0.77,-3.53 0,-1.37 -0.26,-2.54 -0.77,-3.52 -0.51,-0.98 -1.25,-1.73 -2.21,-2.25 v 0 z m -0.22,8.17 c -0.29,0.62 -0.71,1.07 -1.27,1.37 -0.56,0.29 -1.26,0.44 -2.08,0.44 h -1.28 c -0.26,0 -0.48,-0.21 -0.48,-0.48 v -7.43 c 0,-0.26 0.21,-0.48 0.48,-0.48 h 1.29 c 0.82,0 1.51,0.15 2.07,0.43 0.56,0.29 0.98,0.75 1.27,1.36 0.28,0.62 0.43,1.41 0.43,2.38 0,0.97 -0.14,1.78 -0.43,2.4 v 0 z"
     id="path22" />
  <path
     d="m 142.66604,64.195157 c -0.44,-0.26 -0.91,-0.4 -1.41,-0.43 v -0.13 c 0.46,-0.1 0.86,-0.28 1.22,-0.53 0.36,-0.25 0.64,-0.56 0.85,-0.95 0.21,-0.39 0.31,-0.84 0.31,-1.35 0,-0.66 -0.16,-1.24 -0.49,-1.75 -0.32,-0.51 -0.81,-0.9 -1.46,-1.19 -0.65,-0.29 -1.45,-0.43 -2.42,-0.43 h -4.79 c -0.26,0 -0.48,0.21 -0.48,0.48 v 12.19 c 0,0.26 0.21,0.48 0.48,0.48 h 5.14 c 0.98,0 1.81,-0.16 2.48,-0.47 0.67,-0.31 1.18,-0.75 1.52,-1.29 0.34,-0.54 0.52,-1.17 0.52,-1.86 0,-0.64 -0.14,-1.2 -0.41,-1.67 -0.27,-0.47 -0.63,-0.83 -1.07,-1.09 v 0 z m -5.88,-4.02 c 0,-0.26 0.21,-0.48 0.48,-0.48 h 1.63 c 0.62,0 1.09,0.14 1.43,0.43 0.33,0.29 0.5,0.67 0.5,1.15 0,0.35 -0.09,0.64 -0.26,0.89 -0.17,0.25 -0.41,0.44 -0.71,0.57 -0.3,0.13 -0.64,0.2 -1.02,0.2 h -1.58 c -0.26,0 -0.48,-0.21 -0.48,-0.48 v -2.3 0 z m 3.96,7.71 c -0.35,0.3 -0.92,0.44 -1.7,0.44 h -1.79 c -0.26,0 -0.48,-0.21 -0.48,-0.48 v -2.54 c 0,-0.26 0.21,-0.48 0.48,-0.48 h 1.85 c 0.44,0 0.83,0.08 1.15,0.24 0.32,0.16 0.57,0.38 0.75,0.65 0.18,0.28 0.26,0.6 0.26,0.96 0,0.5 -0.18,0.89 -0.53,1.19 v 0 z"
     id="path23" />
  <path
     d="m 156.46604,57.455157 h -2.01 c -0.18,0 -0.34,0.1 -0.42,0.25 l -2.86,5.41 h -0.13 l -2.86,-5.41 c -0.08,-0.16 -0.24,-0.25 -0.42,-0.25 h -2.01 c -0.37,0 -0.6,0.39 -0.42,0.71 l 4.39,7.79 v 4.17 c 0,0.26 0.21,0.48 0.48,0.48 h 1.81 c 0.26,0 0.48,-0.21 0.48,-0.48 v -4.17 l 4.39,-7.79 c 0.18,-0.32 -0.05,-0.71 -0.42,-0.71 z"
     id="path24" />
</svg>
