<?xml version="1.0" encoding="UTF-8" standalone="no"?>
<svg
   width="369.64011"
   height="47.636303"
   viewBox="0 133 936.37513 120.67264"
   fill="none"
   version="1.1"
   id="svg33"
   sodipodi:docname="logo.svg"
   inkscape:version="1.4 (e7c3feb100, 2024-10-09)"
   xmlns:inkscape="http://www.inkscape.org/namespaces/inkscape"
   xmlns:sodipodi="http://sodipodi.sourceforge.net/DTD/sodipodi-0.dtd"
   xmlns="http://www.w3.org/2000/svg"
   xmlns:svg="http://www.w3.org/2000/svg">
  <defs
     id="defs33" />
  <sodipodi:namedview
     id="namedview33"
     pagecolor="#ffffff"
     bordercolor="#000000"
     borderopacity="0.25"
     inkscape:showpageshadow="2"
     inkscape:pageopacity="0.0"
     inkscape:pagecheckerboard="0"
     inkscape:deskcolor="#d1d1d1"
     inkscape:zoom="2.8861536"
     inkscape:cx="255.53041"
     inkscape:cy="219.66953"
     inkscape:window-width="3840"
     inkscape:window-height="2080"
     inkscape:window-x="0"
     inkscape:window-y="0"
     inkscape:window-maximized="1"
     inkscape:current-layer="svg33" />
  <g
     fill="#000000"
     id="g33"
     transform="translate(-0.00487301,120.46748)">
    <g
       id="g23">
      <g
         transform="matrix(0.174,0,0,0.174,0,12.528)"
         id="g22">
        <g
           transform="translate(-236.67,-2845.95)"
           id="g21">
          <path
             d="m 562.155,2847.07 c -13.155,4 -20.161,12.01 -23.45,26.59 l -1.573,7.01 -10.009,1.86 c -47.185,8.58 -99.803,31.03 -131.832,55.91 l -3.432,2.71 4.29,7.01 c 2.287,3.86 5.719,11.15 7.578,16.16 3.575,9.44 10.438,18.44 19.875,25.88 l 5.576,4.43 11.868,-9.15 c 6.577,-5.01 14.013,-10.3 16.586,-11.72 4.147,-2.44 4.576,-3.44 4.576,-9.58 0,-15.02 9.151,-22.31 26.881,-21.31 1.716,0 5.577,2.29 8.436,5.01 l 5.291,4.86 9.437,-2.58 c 5.147,-1.43 12.153,-3 15.728,-3.57 3.575,-0.43 8.722,-1.43 11.439,-2.15 2.717,-0.85 10.009,-1.43 16.014,-1.43 h 11.01 l 0.429,-13.29 0.429,-13.16 6.148,-0.43 6.006,-0.43 v 12.87 c 0,15.02 -1.573,13.73 18.874,15.02 6.863,0.42 18.445,2.14 25.737,3.86 7.292,1.71 14.728,3.43 16.586,3.86 2.288,0.43 4.004,-0.29 5.434,-2.29 2.86,-4.15 13.726,-8.01 19.446,-6.86 11.296,2.28 21.162,14.29 19.303,23.59 -1.001,4.43 1.287,6.43 29.741,26.59 1.43,1 4.289,-0.57 10.295,-5.86 6.863,-6.01 9.723,-10.01 16.872,-23.88 4.718,-9.15 9.437,-17.87 10.438,-19.59 1.716,-2.71 0.858,-3.43 -12.44,-12.15 -30.885,-20.3 -79.071,-40.04 -113.816,-46.76 -8.579,-1.57 -16.586,-3.14 -17.444,-3.43 -1.001,-0.28 -1.859,-2.57 -1.859,-5.15 -0.143,-11.01 -11.439,-25.16 -22.449,-28.16 -6.148,-1.72 -16.586,-1.86 -22.019,-0.29 z"
             id="path1" />
          <path
             d="m 335.809,2939.44 c -24.45,8.72 -32.744,38.89 -15.871,57.62 8.722,9.73 18.874,13.87 31.599,12.73 5.005,-0.29 10.152,-1.57 11.439,-2.57 1.859,-1.58 15.157,11.15 98.231,94.22 l 95.943,95.95 -93.512,93.08 c -51.475,51.04 -94.37,92.94 -95.228,92.94 -0.858,0 -3.575,-1 -6.006,-2.29 -10.724,-5.29 -26.166,-3.57 -36.461,4.29 -6.863,5.29 -13.298,16.02 -14.727,24.74 -2.145,14.01 7.292,29.88 21.733,37.03 6.578,3.29 9.151,3.72 16.158,3 20.875,-1.86 34.888,-17.44 35.174,-39.46 l 0.143,-10.44 93.941,-93.94 93.941,-93.8 189.313,188.74 -0.429,9.58 c -1.001,26.17 21.877,44.76 46.327,37.61 21.448,-6.15 32.315,-30.75 22.306,-50.48 -1.573,-3.14 -5.863,-8.29 -9.58,-11.58 -10.438,-9.15 -21.591,-11.01 -35.175,-5.86 -4.146,1.57 -8.15,2.86 -9.008,2.86 -1.143,0 -172.583,-170.01 -183.879,-182.45 l -4.003,-4.43 93.512,-93.37 c 51.475,-51.48 94.37,-93.94 95.514,-94.66 1.144,-0.57 4.147,-0.43 6.864,0.29 7.435,2.14 19.875,1.57 26.881,-1.29 7.292,-3 16.014,-11.15 19.732,-18.59 3.431,-7 3.431,-23.45 0,-29.74 -9.437,-17.44 -26.31,-25.16 -44.04,-20.02 -19.303,5.72 -29.884,25.88 -24.879,47.9 l 1.001,4.86 -95.228,94.95 -95.371,94.94 -95.086,-95.23 c -83.789,-83.64 -95.085,-95.51 -94.084,-98.23 0.715,-1.72 1.144,-7.72 1.144,-13.15 0,-7.87 -0.715,-11.59 -3.432,-17.02 -8.722,-17.16 -27.453,-25.02 -44.897,-18.73 z"
             id="path2" />
          <path
             d="m 535.845,2956.03 c -7.864,1.43 -17.73,3.57 -22.019,4.58 -7.579,1.85 -7.722,2 -9.437,8.57 -1.001,3.72 -2.86,8.16 -4.433,9.73 -6.291,7 -19.017,9.01 -27.739,4.29 l -5.005,-2.58 -12.153,8.3 c -6.721,4.57 -13.727,9.58 -15.729,11.15 l -3.574,2.86 68.49,68.49 68.346,68.49 67.918,-68.06 c 47.9,-48.05 67.489,-68.63 66.632,-69.92 -0.572,-1 -7.293,-6.29 -14.728,-11.73 l -13.584,-9.72 -4.432,2.72 c -5.719,3.43 -17.873,3.57 -23.45,0.43 -4.718,-2.86 -8.15,-8.44 -9.723,-15.59 -1.001,-4.86 -1.715,-5.58 -7.435,-7.29 -9.58,-2.86 -39.464,-7.72 -47.328,-7.72 h -7.006 v 28.59 c 0,28.31 0,28.6 3.288,30.75 7.579,4.86 8.866,15.44 2.717,22.3 -3.289,3.72 -5.433,4.72 -11.439,5.29 -7.006,0.57 -7.721,0.29 -12.439,-4.43 -3.575,-3.58 -5.005,-6.29 -5.005,-9.44 0,-5.57 3.289,-12.15 7.435,-15.15 3.146,-2.15 3.289,-3.01 3.718,-30.03 l 0.572,-27.88 -9.151,0.14 c -4.862,0 -15.443,1.29 -23.307,2.86 z"
             id="path3" />
          <path
             d="m 311.501,3027.23 c -19.588,32.03 -37.033,83.79 -40.321,118.82 -1.287,13.44 -1.43,13.87 -7.436,14.87 -7.149,1 -14.012,5.72 -19.875,13.44 -9.008,11.87 -9.58,25.45 -1.429,39.18 4.861,8.15 13.297,13.87 22.305,15.44 l 5.005,0.72 3.145,18.59 c 3.146,18.58 6.721,33.88 11.296,47.18 8.007,23.74 30.742,72.21 33.888,72.21 0.715,0 3.145,-1.15 5.147,-2.72 5.148,-3.57 13.727,-5.86 22.592,-5.86 7.435,0 7.435,0 18.588,-11.58 6.291,-6.29 11.296,-12.3 11.153,-13.16 -0.143,-1 -3.861,-6.86 -8.436,-13.15 -4.433,-6.29 -8.579,-12.3 -8.865,-13.3 -0.429,-1 -3.575,-1.71 -8.579,-1.71 -4.29,0 -9.723,-1.01 -12.011,-2.29 -4.719,-2.43 -9.866,-11.73 -9.866,-17.73 0,-5.29 5.004,-15.16 9.008,-17.88 l 3.574,-2.28 -3.574,-11.01 c -4.004,-12.59 -7.578,-34.46 -7.578,-46.47 v -8.15 h -22.878 v -11.44 h 21.162 l 1.001,-11.87 c 0.858,-9.58 3.717,-26.31 8.722,-50.9 0.429,-2.29 -0.429,-4.58 -2.717,-7.15 -5.147,-5.58 -6.72,-9.3 -6.72,-16.3 0,-12.3 10.438,-21.74 22.877,-20.59 6.292,0.57 6.721,0.28 9.151,-4.72 1.43,-2.86 5.148,-8.72 8.151,-12.73 3.145,-4.14 5.576,-8.15 5.29,-8.86 -0.286,-0.72 -5.719,-6.72 -12.297,-13.3 -11.152,-11.15 -12.439,-12.01 -19.303,-12.87 -8.579,-1.14 -18.016,-5 -20.875,-8.44 -1.001,-1.42 -2.431,-2.43 -3.146,-2.43 -0.572,0 -3.432,3.87 -6.149,8.44 z"
             id="path4" />
          <path
             d="m 822.245,3022.37 c -6.864,4.72 -11.153,6.29 -20.161,7.29 -6.864,0.86 -7.864,1.58 -18.016,12.44 -6.006,6.29 -11.296,12.16 -11.868,13.16 -0.715,1 0.572,4 3.003,7 2.287,2.86 6.291,8.44 8.722,12.3 4.432,6.86 4.861,7.15 10.866,7.15 13.012,0 20.876,6.72 22.735,19.3 1.144,7.15 -0.858,12.73 -6.434,17.88 l -4.29,4 2.145,8.44 c 1.144,4.57 2.431,10.15 2.86,12.58 0.286,2.29 1.001,5.86 1.43,7.86 1,5.43 1.858,12.58 2.859,25.31 l 1.001,11.87 h 22.592 v 11.44 h -22.878 l -0.143,5 c -0.143,2.72 -0.286,5.43 -0.429,6.01 -0.143,0.71 -0.858,5.72 -1.43,11.29 -0.572,5.58 -2.859,17.3 -5.004,26.03 l -4.004,16.01 3.575,3.15 c 6.005,5.57 9.151,14.29 7.578,21.16 -2.717,12.15 -9.151,17.58 -20.59,17.44 l -7.435,-0.14 -9.294,13.44 c -5.004,7.29 -9.437,14.01 -9.723,14.87 -0.286,0.86 4.433,6.72 10.438,12.87 l 10.867,11.15 11.01,0.72 c 8.865,0.57 12.439,1.43 18.016,4.72 l 6.863,4 2.574,-3.29 c 1.287,-1.72 7.435,-13.16 13.44,-25.17 15.3,-30.45 28.026,-70.63 31.6,-99.51 1.144,-9.15 1.859,-9.87 10.009,-12.3 15.586,-4.72 24.308,-16.87 24.308,-34.03 0,-8.58 -0.572,-10.87 -4.004,-16.01 -5.004,-7.73 -14.298,-14.45 -21.305,-15.45 -3.002,-0.57 -5.719,-1.28 -6.005,-1.86 -0.286,-0.42 -0.858,-4.14 -1.43,-8 -1.43,-12.3 -4.861,-28.74 -9.294,-45.04 -1.716,-5.87 -3.289,-11.73 -3.575,-13.16 -3.86,-15.01 -25.88,-63.2 -32.6,-71.63 l -3.289,-4.01 z"
             id="path5" />
          <path
             d="m 379.705,3066.98 c -0.857,1.43 -4.432,6.72 -8.007,11.72 l -6.291,9.16 2.431,4.43 c 4.289,7.58 4.718,12.87 1.572,20.02 -3.145,7.15 -9.865,12.29 -16.157,12.29 -3.431,0 -4.146,0.86 -6.005,7.44 -3.146,11.01 -6.435,31.6 -7.006,45.04 l -0.715,11.87 h 89.079 l 4.004,-4.15 c 5.147,-5.58 10.867,-6.72 17.587,-3.57 7.006,3.28 10.152,10.43 7.864,18.01 -3.145,10.15 -17.158,13.3 -24.45,5.44 l -4.004,-4.29 h -90.08 l 0.572,8.86 c 1.572,24.59 7.149,51.76 11.152,54.34 0.858,0.57 3.003,1.14 4.576,1.14 4.003,0 10.152,4.86 13.012,10.44 3.002,5.86 2.859,14.87 -0.143,20.87 -2.431,4.58 -2.431,4.86 1.143,9.87 2.002,3 6.578,9.01 10.152,13.58 l 6.578,8.15 5.29,-6 c 3.003,-3.44 31.6,-32.46 63.629,-64.77 32.028,-32.18 58.052,-59.06 57.909,-59.63 -0.286,-0.71 -131.404,-132.69 -131.976,-132.69 0,0 -0.715,1.14 -1.716,2.43 z"
             id="path6" />
          <path
             d="m 734.595,3092.01 c -15.014,15.16 -44.469,45.18 -65.773,66.49 l -38.464,39.03 64.773,64.35 c 35.746,35.31 65.344,64.34 65.773,64.34 0.429,0 3.575,-4.15 7.006,-9.01 3.289,-4.86 7.435,-10.58 9.008,-12.58 l 3.003,-3.72 -3.003,-5.86 c -3.86,-7.58 -3.717,-13.87 0.286,-21.02 2.574,-4.58 4.576,-6.15 10.009,-8.01 3.718,-1.14 7.007,-2.57 7.435,-3 1.573,-1.57 9.009,-35.6 10.009,-45.18 0.429,-5.29 1.287,-11.3 1.573,-13.59 l 0.858,-3.86 H 761.19 c -36.175,0 -46.041,0.43 -46.899,1.86 -3.575,5.86 -13.155,8.44 -19.446,5.15 -11.439,-5.86 -10.295,-22.02 1.859,-27.02 5.433,-2.29 10.152,-1.01 16.3,4.28 l 4.861,4.29 h 89.223 l -1.001,-9.72 c -1.144,-11.87 -2.001,-18.59 -2.859,-23.16 -0.429,-2 -1.001,-5.15 -1.43,-7.15 -0.429,-2 -1.716,-8.3 -3.146,-14.01 -2.145,-9.44 -2.717,-10.3 -6.005,-10.3 -14.442,0 -23.164,-17.73 -15.872,-32.03 l 2.717,-5.43 -5.576,-8.15 c -5.863,-8.3 -10.867,-14.44 -11.725,-14.44 -0.286,0 -12.726,12.44 -27.596,27.45 z"
             id="path7" />
          <path
             d="m 506.247,3320.35 c -36.032,36.03 -65.487,66.06 -65.487,66.77 0,0.72 4.719,4.44 10.295,8.44 16.014,11.15 15.585,11.01 22.02,7.87 10.009,-5.15 21.162,-3.01 27.596,5.14 1.716,2.15 3.003,5.29 3.003,7.01 0,1.71 0.858,3.86 1.858,4.72 2.717,2.14 35.318,8.72 48.901,9.72 l 12.154,1 v -20.45 c 0,-20.01 0,-20.3 -3.575,-23.16 -6.434,-5 -7.864,-9.44 -5.576,-17.16 1.716,-5.72 2.86,-7 8.436,-9.72 7.721,-3.72 13.012,-3 18.445,2.72 7.578,7.86 7.15,16.72 -1.144,24.3 -3.717,3.44 -3.717,3.72 -3.717,24.17 v 20.59 l 4.003,-0.86 c 2.145,-0.29 7.722,-1.14 12.44,-1.57 4.576,-0.57 9.723,-1.29 11.439,-1.58 1.573,-0.42 7.435,-1.57 12.869,-2.71 21.304,-4.58 19.874,-3.86 22.019,-10.44 3.861,-12.44 19.875,-18.45 31.028,-11.87 l 5.291,3.15 10.151,-6.87 c 5.577,-3.71 11.582,-7.86 13.441,-9.15 3.146,-2.43 2.86,-2.71 -62.913,-69.06 -36.462,-36.6 -66.489,-66.63 -66.918,-66.63 -0.428,0.14 -30.169,29.6 -66.059,65.63 z"
             id="path8" />
          <path
             d="m 707.285,3399.28 c -3.146,2.43 -9.295,7.01 -13.727,10.01 -7.578,5.15 -8.293,6.15 -8.293,10.87 0,7.15 -5.148,17.3 -10.581,20.73 -3.432,2.14 -6.291,2.57 -13.584,2.14 -9.294,-0.43 -11.724,-1.85 -16.586,-10.15 -1.287,-2.14 -2.145,-2.14 -11.439,0.43 -5.433,1.57 -12.868,3.15 -16.443,3.72 -3.432,0.57 -6.72,1.14 -7.149,1.43 -0.858,0.57 -8.293,1.57 -21.019,2.86 l -9.008,1 v 31.17 h -12.869 v -15.73 c 0,-15.3 -0.143,-15.73 -3.146,-15.73 -5.719,-0.14 -18.731,-1.71 -29.741,-3.71 -14.584,-2.58 -16.872,-3.01 -24.593,-5.3 -6.434,-2 -6.577,-2 -8.15,1.29 -2.431,5.43 -9.866,9.15 -18.016,9.15 -12.583,-0.14 -19.303,-6.57 -20.59,-20.02 l -0.858,-8.29 -14.013,-9.44 c -7.721,-5.14 -14.727,-9.43 -15.728,-9.43 -1.001,0 -7.149,5.29 -13.584,11.86 -8.293,8.3 -14.012,15.73 -18.874,24.6 -4.003,6.86 -7.006,12.72 -6.863,13.01 0.286,0.14 6.577,4.15 14.013,8.87 34.316,21.44 68.49,34.88 107.811,42.46 10.294,2 20.16,4.01 22.019,4.43 2.574,0.58 3.146,1.58 3.146,6.44 0,7.29 2.717,13.73 8.722,20.59 13.155,14.87 37.748,14.58 49.902,-0.72 4.861,-6.14 8.579,-15.44 8.579,-21.59 0,-3.57 0.572,-4.14 5.433,-4.86 36.176,-6.15 70.206,-16.73 101.806,-31.88 9.294,-4.44 30.17,-16.31 36.032,-20.45 l 4.147,-3 -3.003,-4.44 c -1.573,-2.57 -5.004,-8.43 -7.292,-13.15 -2.86,-5.43 -9.008,-13.16 -16.73,-21.16 -6.863,-6.87 -12.725,-12.44 -13.297,-12.44 -0.429,0 -3.432,2 -6.434,4.43 z"
             id="path9" />
          <g
             transform="translate(236.67,2845.95)"
             id="g20">
            <g
               transform="matrix(395.6,0,0,395.6,2477.54,495.755)"
               id="g9">
              <rect
                 x="0.068999998"
                 y="-0.42399999"
                 width="0.33199999"
                 height="0.12"
                 id="rect9" />
            </g>
            <g
               id="g19">
              <g
                 transform="translate(809.16,495.755)"
                 id="g16">
                <g
                   transform="scale(395.6)"
                   id="g10">
                  <path
                     d="m 0.063,0 h 0.154 v -0.236 h 0.129 c 0.167,0 0.265,-0.1 0.265,-0.245 0,-0.144 -0.096,-0.246 -0.261,-0.246 H 0.063 Z m 0.154,-0.359 v -0.243 h 0.104 c 0.088,0 0.131,0.049 0.131,0.121 0,0.072 -0.043,0.122 -0.131,0.122 z"
                     id="path10" />
                </g>
                <g
                   transform="matrix(395.6,0,0,395.6,256.241,0)"
                   id="g11">
                  <path
                     d="m 0.732,-0.364 c 0,-0.238 -0.148,-0.373 -0.341,-0.373 -0.194,0 -0.341,0.135 -0.341,0.373 0,0.237 0.147,0.374 0.341,0.374 0.193,0 0.341,-0.136 0.341,-0.374 z m -0.156,0 c 0,0.154 -0.074,0.238 -0.185,0.238 -0.112,0 -0.185,-0.084 -0.185,-0.238 0,-0.154 0.073,-0.237 0.185,-0.237 0.111,0 0.185,0.083 0.185,0.237 z"
                     id="path11" />
                </g>
                <g
                   transform="matrix(395.6,0,0,395.6,565.584,0)"
                   id="g12">
                  <path
                     d="M 0.672,-0.727 H 0.518 V -0.27 H 0.512 L 0.198,-0.727 H 0.063 V 0 H 0.217 V -0.458 H 0.222 L 0.539,0 h 0.133 z"
                     id="path12" />
                </g>
                <g
                   transform="matrix(395.6,0,0,395.6,856.384,0)"
                   id="g13">
                  <path
                     d="M 0.036,-0.6 H 0.258 V 0 H 0.41 V -0.6 H 0.633 V -0.727 H 0.036 Z"
                     id="path13" />
                </g>
                <g
                   transform="matrix(395.6,0,0,395.6,1120.77,0)"
                   id="g14">
                  <path
                     d="m 0.512,-0.727 v 0.459 c 0,0.083 -0.058,0.143 -0.147,0.143 -0.089,0 -0.148,-0.06 -0.148,-0.143 V -0.727 H 0.063 v 0.472 c 0,0.159 0.12,0.265 0.302,0.265 0.18,0 0.301,-0.106 0.301,-0.265 v -0.472 z"
                     id="path14" />
                </g>
                <g
                   transform="matrix(395.6,0,0,395.6,1409.33,0)"
                   id="g15">
                  <path
                     d="m 0.458,-0.518 h 0.147 c -0.002,-0.13 -0.109,-0.219 -0.27,-0.219 -0.16,0 -0.277,0.088 -0.276,0.22 0,0.107 0.075,0.169 0.198,0.198 l 0.079,0.02 c 0.079,0.019 0.124,0.042 0.124,0.091 0,0.053 -0.051,0.089 -0.129,0.089 -0.08,0 -0.137,-0.037 -0.142,-0.109 H 0.04 c 0.004,0.157 0.116,0.238 0.293,0.238 0.177,0 0.282,-0.085 0.282,-0.218 0,-0.121 -0.092,-0.185 -0.218,-0.214 L 0.332,-0.437 c -0.064,-0.015 -0.116,-0.038 -0.115,-0.09 0,-0.047 0.041,-0.082 0.116,-0.082 0.074,0 0.119,0.034 0.125,0.091 z"
                     id="path15" />
                </g>
              </g>
              <g
                 transform="translate(2642.32,495.755)"
                 id="g18">
                <g
                   transform="scale(395.6)"
                   id="g17">
                  <path
                     d="M 0.207,-0.727 H 0.033 L 0.256,-0.364 0.029,0 H 0.205 L 0.354,-0.248 H 0.36 L 0.509,0 H 0.686 L 0.459,-0.364 0.681,-0.727 H 0.507 L 0.36,-0.479 H 0.354 Z"
                     id="path16" />
                </g>
              </g>
            </g>
          </g>
        </g>
      </g>
    </g>
    <g
       transform="translate(120)"
       id="g32">
      <path
         class="cls-1"
         d="m 521.65,99.77 c -4.18,0 -7.8,-1.08 -10.87,-3.24 -3.07,-2.16 -5.45,-5.18 -7.13,-9.07 -1.68,-3.89 -2.52,-8.45 -2.52,-13.68 0,-5.23 0.84,-9.8 2.52,-13.72 1.68,-3.91 4.06,-6.94 7.13,-9.07 3.07,-2.14 6.7,-3.2 10.87,-3.2 4.17,0 7.8,1.07 10.87,3.2 3.07,2.14 5.45,5.16 7.13,9.07 1.68,3.91 2.52,8.48 2.52,13.72 0,5.24 -0.84,9.79 -2.52,13.68 -1.68,3.89 -4.06,6.91 -7.13,9.07 -3.07,2.16 -6.7,3.24 -10.87,3.24 z m 0,-4.32 c 3.12,0 5.83,-0.9 8.14,-2.7 2.31,-1.8 4.09,-4.33 5.36,-7.6 1.27,-3.26 1.91,-7.06 1.91,-11.38 0,-4.32 -0.64,-8.17 -1.91,-11.41 -1.27,-3.24 -3.06,-5.76 -5.36,-7.56 -2.3,-1.8 -5.02,-2.7 -8.14,-2.7 -3.12,0 -5.83,0.9 -8.14,2.7 -2.3,1.8 -4.09,4.33 -5.36,7.6 -1.27,3.26 -1.91,7.06 -1.91,11.38 0,4.32 0.64,8.11 1.91,11.38 1.27,3.26 3.06,5.8 5.36,7.6 2.3,1.8 5.01,2.7 8.14,2.7 z"
         id="path23" />
      <g
         id="g31">
        <path
           class="cls-1"
           d="m 449.29,74.72 c -0.21,-0.15 -0.43,-0.29 -0.64,-0.42 -1.28,-0.79 -1.39,-2.69 -0.16,-3.57 0.24,-0.17 0.47,-0.35 0.7,-0.55 1.34,-1.15 2.35,-2.54 3.02,-4.18 0.67,-1.63 1.01,-3.34 1.01,-5.11 0,-3.7 -1.43,-6.66 -4.28,-8.89 -2.85,-2.23 -6.78,-3.35 -11.77,-3.35 h -15.55 c -1.19,0 -2.16,0.97 -2.16,2.16 v 45.94 c 0,1.19 0.97,2.16 2.16,2.16 h 16.34 c 3.41,0 6.35,-0.58 8.82,-1.73 2.47,-1.15 4.38,-2.76 5.72,-4.82 1.34,-2.06 2.02,-4.46 2.02,-7.2 0,-2.4 -0.49,-4.48 -1.48,-6.23 -0.98,-1.75 -2.23,-3.16 -3.74,-4.21 z m -25.1,-19.59 c 0,-1.19 0.97,-2.16 2.16,-2.16 h 10.73 c 3.36,0 6.02,0.75 7.99,2.23 1.97,1.49 2.95,3.62 2.95,6.41 0,2.79 -0.97,5 -2.92,6.66 -1.94,1.66 -4.62,2.48 -8.03,2.48 h -10.73 c -1.19,0 -2.16,-0.97 -2.16,-2.16 V 55.13 Z m 22.07,36.83 c -2.04,1.75 -4.84,2.63 -8.39,2.63 h -11.52 c -1.19,0 -2.16,-0.97 -2.16,-2.16 V 77.24 c 0,-1.19 0.97,-2.16 2.16,-2.16 h 10.44 c 3.94,0 7.01,0.85 9.22,2.56 2.21,1.7 3.31,4.12 3.31,7.24 0,3.12 -1.02,5.34 -3.06,7.09 z"
           id="path24" />
        <path
           class="cls-1"
           d="m 467.7,48.66 h -0.5 c -1.19,0 -2.16,0.97 -2.16,2.16 v 45.94 c 0,1.19 0.97,2.16 2.16,2.16 h 28.15 c 1.19,0 2.16,-0.97 2.16,-2.16 v 0 c 0,-1.19 -0.97,-2.16 -2.16,-2.16 h -23.33 c -1.19,0 -2.16,-0.97 -2.16,-2.16 V 50.82 c 0,-1.19 -0.97,-2.16 -2.16,-2.16 z"
           id="path25" />
        <path
           class="cls-1"
           d="m 582.97,89.19 c -1.25,1.97 -2.88,3.5 -4.9,4.61 -2.02,1.1 -4.37,1.66 -7.06,1.66 -3.07,0 -5.83,-0.89 -8.28,-2.66 -2.45,-1.78 -4.38,-4.28 -5.8,-7.52 -1.42,-3.24 -2.12,-7.07 -2.12,-11.48 0,-4.41 0.67,-8.11 2.02,-11.38 1.34,-3.26 3.24,-5.8 5.69,-7.6 2.45,-1.8 5.3,-2.7 8.57,-2.7 3.79,0 6.94,1.13 9.43,3.38 2.1,1.9 3.47,4.33 4.11,7.28 0.22,1 1.08,1.72 2.11,1.72 h 0.97 c 1.4,0 2.41,-1.31 2.1,-2.68 -0.52,-2.3 -1.41,-4.36 -2.67,-6.18 -1.73,-2.5 -3.95,-4.43 -6.66,-5.8 -2.71,-1.37 -5.82,-2.05 -9.32,-2.05 -4.18,0 -7.88,1.06 -11.12,3.17 -3.24,2.11 -5.77,5.11 -7.6,9 -1.83,3.89 -2.74,8.47 -2.74,13.75 0,4.94 0.85,9.38 2.56,13.32 1.7,3.94 4.16,7.04 7.38,9.32 3.22,2.28 7.01,3.42 11.38,3.42 3.7,0 6.95,-0.72 9.76,-2.16 2.81,-1.44 5.05,-3.48 6.73,-6.12 1.24,-1.94 2.11,-4.1 2.62,-6.49 0.29,-1.36 -0.71,-2.66 -2.11,-2.66 h -0.99 c -1.05,0 -1.93,0.77 -2.12,1.8 -0.34,1.86 -0.98,3.54 -1.93,5.04 z"
           id="path26" />
        <path
           class="cls-1"
           d="m 629.99,48.66 h -0.35 c -0.57,0 -1.13,0.23 -1.53,0.64 l -16.29,16.36 -3.33,3.46 c -1.36,1.41 -3.75,0.43 -3.72,-1.53 l 0.06,-4.31 V 50.82 c 0,-1.19 -0.97,-2.16 -2.16,-2.16 h -0.43 c -1.19,0 -2.16,0.97 -2.16,2.16 v 45.94 c 0,1.19 0.97,2.16 2.16,2.16 h 0.43 c 1.19,0 2.16,-0.97 2.16,-2.16 V 80.29 c 0,-0.57 0.22,-1.11 0.62,-1.52 l 4.4,-4.47 c 0.93,-0.95 2.49,-0.83 3.28,0.23 l 17.33,23.5 c 0.41,0.55 1.05,0.88 1.74,0.88 h 0.68 c 1.77,0 2.79,-2.02 1.74,-3.44 L 616.18,70.49 c -0.63,-0.86 -0.55,-2.04 0.2,-2.8 l 15.14,-15.35 c 1.35,-1.37 0.38,-3.68 -1.54,-3.68 z"
           id="path27" />
        <path
           class="cls-1"
           d="m 664.68,85.01 -0.88,2.76 c -0.64,2.01 -3.49,2.01 -4.12,0 l -0.91,-2.9 -12.45,-34.78 c -0.31,-0.86 -1.12,-1.43 -2.03,-1.43 h -0.54 c -1.49,0 -2.53,1.47 -2.04,2.88 l 16.19,45.94 c 0.3,0.86 1.12,1.44 2.04,1.44 h 3.42 c 0.92,0 1.73,-0.58 2.04,-1.44 l 16.19,-45.94 c 0.5,-1.41 -0.55,-2.88 -2.04,-2.88 h -0.39 c -0.91,0 -1.73,0.57 -2.03,1.43 z"
           id="path28" />
        <path
           class="cls-1"
           d="m 718.95,51 c -3.07,-2.14 -6.7,-3.2 -10.87,-3.2 -4.17,0 -7.8,1.07 -10.87,3.2 -3.07,2.14 -5.45,5.16 -7.13,9.07 -1.68,3.91 -2.52,8.48 -2.52,13.72 0,5.24 0.84,9.79 2.52,13.68 1.68,3.89 4.06,6.91 7.13,9.07 3.07,2.16 6.7,3.24 10.87,3.24 4.17,0 7.8,-1.08 10.87,-3.24 3.07,-2.16 5.45,-5.18 7.13,-9.07 1.68,-3.89 2.52,-8.45 2.52,-13.68 0,-5.23 -0.84,-9.8 -2.52,-13.72 -1.68,-3.91 -4.06,-6.94 -7.13,-9.07 z m 2.63,34.16 c -1.27,3.26 -3.06,5.8 -5.36,7.6 -2.3,1.8 -5.02,2.7 -8.14,2.7 -3.12,0 -5.83,-0.9 -8.14,-2.7 -2.3,-1.8 -4.09,-4.33 -5.36,-7.6 -1.27,-3.26 -1.91,-7.06 -1.91,-11.38 0,-4.32 0.64,-8.11 1.91,-11.38 1.27,-3.26 3.06,-5.8 5.36,-7.6 2.3,-1.8 5.01,-2.7 8.14,-2.7 3.13,0 5.83,0.9 8.14,2.7 2.3,1.8 4.09,4.32 5.36,7.56 1.27,3.24 1.91,7.04 1.91,11.41 0,4.37 -0.64,8.11 -1.91,11.38 z"
           id="path29" />
        <path
           class="cls-1"
           d="m 734.87,52.97 h 12.89 c 1.19,0 2.16,0.97 2.16,2.16 v 41.62 c 0,1.19 0.97,2.16 2.16,2.16 h 0.5 c 1.19,0 2.16,-0.97 2.16,-2.16 V 55.13 c 0,-1.19 0.97,-2.16 2.16,-2.16 h 12.89 c 1.19,0 2.16,-0.97 2.16,-2.16 v 0 c 0,-1.19 -0.97,-2.16 -2.16,-2.16 h -34.92 c -1.19,0 -2.16,0.97 -2.16,2.16 v 0 c 0,1.19 0.97,2.16 2.16,2.16 z"
           id="path30" />
        <path
           class="cls-1"
           d="M 785.56,92.43 V 77.17 c 0,-1.19 0.97,-2.16 2.16,-2.16 h 17.42 c 1.19,0 2.16,-0.97 2.16,-2.16 v 0 c 0,-1.19 -0.97,-2.16 -2.16,-2.16 h -17.42 c -1.19,0 -2.16,-0.97 -2.16,-2.16 V 55.14 c 0,-1.19 0.97,-2.16 2.16,-2.16 h 26.21 c 1.19,0 2.16,-0.97 2.16,-2.16 v 0 c 0,-1.19 -0.97,-2.16 -2.16,-2.16 h -30.96 c -1.19,0 -2.16,0.97 -2.16,2.16 v 45.94 c 0,1.19 0.97,2.16 2.16,2.16 h 31.25 c 1.19,0 2.16,-0.97 2.16,-2.16 v 0 c 0,-1.19 -0.97,-2.16 -2.16,-2.16 h -26.5 c -1.19,0 -2.16,-0.97 -2.16,-2.16 z"
           id="path31" />
      </g>
    </g>
  </g>
</svg>
